inDegrees=no
num_controls=7
num_derivatives=13
num_iterations=124
num_multipliers=7
num_parameters=0
num_slacks=7
num_states=26
objective=0.497132
objective_accelerations=0.042302
objective_balance=0.003562
objective_effort=0.039732
objective_height=0.405708
objective_ligament=0.005828
solver_duration=1435.449602
status=Solve_Succeeded
success=true
DataType=double
version=3
OpenSimVersion=4.5
endheader
time	/jointset/ground_pelvis/pelvis_tilt/value	/jointset/ground_pelvis/pelvis_tx/value	/jointset/ground_pelvis/pelvis_ty/value	/jointset/hip_r/hip_flexion_r/value	/jointset/hip_r/hip_adduction_r/value	/jointset/hip_r/hip_rotation_r/value	/jointset/back/lumbar_extension/value	/jointset/patellofemoral_r/patellar_flexion_r/value	/jointset/knee_r/knee_flexion_r/value	/jointset/knee_r/knee_adduction_r/value	/jointset/knee_r/knee_rotation_r/value	/jointset/ankle_r/ankle_angle_r/value	/jointset/subtalar_r/subtalar_angle_r/value	/jointset/ground_pelvis/pelvis_tilt/speed	/jointset/ground_pelvis/pelvis_tx/speed	/jointset/ground_pelvis/pelvis_ty/speed	/jointset/hip_r/hip_flexion_r/speed	/jointset/hip_r/hip_adduction_r/speed	/jointset/hip_r/hip_rotation_r/speed	/jointset/back/lumbar_extension/speed	/jointset/patellofemoral_r/patellar_flexion_r/speed	/jointset/knee_r/knee_flexion_r/speed	/jointset/knee_r/knee_adduction_r/speed	/jointset/knee_r/knee_rotation_r/speed	/jointset/ankle_r/ankle_angle_r/speed	/jointset/subtalar_r/subtalar_angle_r/speed	/forceset/tau_hip_flexion_r	/forceset/tau_hip_adduction_r	/forceset/tau_hip_rotation_r	/forceset/tau_knee_flexion_r	/forceset/tau_ankle_angle_r	/forceset/tau_subtalar_angle_r	/forceset/tau_lumbar_extension	lambda_cid13_p0	lambda_cid14_p0	lambda_cid14_p1	lambda_cid14_p2	lambda_cid14_p3	lambda_cid14_p4	lambda_cid14_p5	/jointset/ground_pelvis/pelvis_tilt/accel	/jointset/ground_pelvis/pelvis_tx/accel	/jointset/ground_pelvis/pelvis_ty/accel	/jointset/hip_r/hip_flexion_r/accel	/jointset/hip_r/hip_adduction_r/accel	/jointset/hip_r/hip_rotation_r/accel	/jointset/back/lumbar_extension/accel	/jointset/patellofemoral_r/patellar_flexion_r/accel	/jointset/knee_r/knee_flexion_r/accel	/jointset/knee_r/knee_adduction_r/accel	/jointset/knee_r/knee_rotation_r/accel	/jointset/ankle_r/ankle_angle_r/accel	/jointset/subtalar_r/subtalar_angle_r/accel	gamma_cid13_p0	gamma_cid14_p0	gamma_cid14_p1	gamma_cid14_p2	gamma_cid14_p3	gamma_cid14_p4	gamma_cid14_p5
0.5	-0.1373791039724747	0.03445531940612031	0.8416538989092178	0.8081431514051997	-0.2428073721405859	-0.09858205527191478	-0.3236227020410454	0.7706410352610458	0.7706410352610596	0.06577057759615181	0.174526732510248	0.2690557358225911	0.04050062026719595	-0.3622187692845891	-0.1275379319003547	-0.4164743295447609	1.725757638936669	-0.02613341686565324	0.3828348621095519	-0.5991512030111817	1.888553884424435	1.888553884424444	-0.1828707474632871	3.941312682915641e-05	0.6133908291925286	0.1260232010538116	-0.1007386330962273	-0.02065906375548794	0.01300328294671106	-0.3526686514001974	0.07240376738524475	-0.01040409768698329	0.1518099872803365	-27.18518603523266	-18.62474116002071	-3.938097825971903	-3.300061450318354	2.629702999445234	-664.2400093113956	59.93079841132708	0.1898813267640419	0.3605970604340342	-0.4353676020374313	-0.9941383296883531	0.07042098186519426	-0.3401802553029959	1.422121669225445	-1.274896148487222	-1.274896148487174	0.5277551156871471	-0.02508189134160979	-0.5767043323820167	0.0182009149221272	-1.353393609845464e-07	-9.290060198451762e-08	1.30792174945197e-06	-7.158842242018815e-07	-8.587029925924511e-08	-1.693727769907823e-07	9.539177531302046e-07
0.51	-0.1409911676440144	0.03319815507703661	0.8374683456558278	0.8253482569130973	-0.2430657883686092	-0.09477145035537787	-0.3295423872582446	0.7894599318318872	0.7894599318318941	0.0639692860998123	0.1745270980673449	0.2751596749575898	0.04176067180718863	-0.360144149813073	-0.1238788528619355	-0.4205395093358185	1.715019268871588	-0.02554707539128441	0.3792616902240283	-0.5847023708950195	1.874950377703118	1.874950377703118	-0.1773846318862977	3.564056914753333e-05	0.60731008669742	0.1259683050955023	-0.1067903457582474	-0.01867879154094837	0.01347015491293534	-0.356240072734017	0.06884854238660522	-0.009655851263535131	0.1573057191294378	-26.03113091771351	-19.9547626811323	-3.974394832556402	-3.147629977535773	3.115378030764341	-668.3889819434629	59.7797404975826	0.2237157015647632	0.370958518157025	-0.377603155325105	-1.15032615145397	0.05314557808452965	-0.3697302425955276	1.468784412841746	-1.444309589498032	-1.444309589499367	0.559632346770474	0.01215578687564029	-0.636824847635668	-0.02003783407209752	-1.264465713040939e-07	-8.500354730706597e-08	1.225007412336282e-06	-6.697253455541502e-07	-8.399532680281441e-08	-1.499973451656761e-07	8.93842871702567e-07
0.52	-0.1445809924319949	0.03197806057685937	0.8332450386069901	0.8424386507590375	-0.2433182602123161	-0.09099734607518026	-0.3353150800682762	0.8081345470044065	0.8081345470044062	0.06222297427285526	0.1745274620438379	0.2812001935397253	0.04301963379102531	-0.3577709925727832	-0.1201239661190643	-0.4240250886342851	1.702815306545068	-0.02494454000244365	0.3755347348417655	-0.5697527215776529	1.859697604760038	1.859697604760028	-0.1718748135866829	3.909700574914414e-05	0.6007067186198957	0.1258052898226077	-0.1128420584202671	-0.01669851932640879	0.01393702687916761	-0.3598114940678369	0.06529331738796554	-0.008907604840087218	0.1628014509785395	-24.86777809550439	-21.29029503039925	-4.008982288010301	-2.998526195499933	3.596130421739606	-672.6291648984768	59.68365273025113	0.2495888805187778	0.3797586013244335	-0.3194475035192345	-1.287256781976087	0.07365976475957994	-0.3709369546508352	1.522285109466338	-1.604749392840008	-1.604749392840025	0.5324956602122141	-0.02363609248495965	-0.6812294488651898	-0.003422947994924895	-1.177461133983647e-07	-7.712328812443295e-08	1.146608677689307e-06	-6.225775152551525e-07	-8.231315289308191e-08	-1.322396271010507e-07	8.362788673217168e-07
0.53	-0.1481456643784851	0.0307959461713086	0.8289898007795079	0.8593998829388453	-0.243564569017351	-0.08726118689113334	-0.3409358636874875	0.8266485846429804	0.8266485846429751	0.06053173608441795	0.1745277831045332	0.2871721720963684	0.04427650691117393	-0.3551158240510223	-0.1162871435710121	-0.4269218936822504	1.68919597248814	-0.02431500010468967	0.3716755398028226	-0.554334434036109	1.842847758411953	1.842847758411944	-0.1663713426603889	2.548563944908819e-05	0.5936086723442755	0.1255505792086441	-0.1187463715871846	-0.01485788112658182	0.01438624474276482	-0.363522500354768	0.06192332616002318	-0.008252115833927057	0.1681641919062571	-23.69757804630245	-22.57468750893216	-4.080514345762813	-2.837119354439642	4.073122517499337	-676.9125545267192	59.55606364943258	0.2806087229141206	0.3873935086662412	-0.2597341109176992	-1.434554580079187	0.05792417329294054	-0.3968020706943221	1.562035810755493	-1.764404301983957	-1.764404301983869	0.5596316191356367	0.009739246680691848	-0.7361656804807418	-0.03920487314897127	-1.093044833972301e-07	-6.947222182421227e-08	1.073312251898948e-06	-5.752642648104333e-07	-8.066941620039551e-08	-1.162861781915482e-07	7.818368071063651e-07
0.54	-0.1516823590627757	0.0296525498766625	0.8247086074804496	0.8762178652055785	-0.2438045178092061	-0.08356429791591179	-0.3464003773844319	0.8449862634088352	0.8449862634088247	0.05889560436730289	0.1745279606326435	0.2930707554975412	0.04553029097417256	-0.3521755401328872	-0.11238034393813	-0.4292161829495175	1.674165323930093	-0.02367253736655073	0.3676806930767474	-0.5384987371242831	1.824425830216215	1.824425830216208	-0.1608535193221894	1.039048847791544e-05	0.5860276875258429	0.1251874783926047	-0.1246506847541012	-0.01301724292675429	0.01483546260636832	-0.3672335066416991	0.05855333493208087	-0.007596626827766273	0.1735269328339753	-22.52340081526197	-23.86552400635028	-4.150681131812785	-2.678778615573091	4.547902970049253	-681.2998838632452	59.48024718763806	0.3066119597936102	0.3937540182903935	-0.1989443473795843	-1.569519682199899	0.07624433283657034	-0.3980672920772966	1.605766983522744	-1.919165762370815	-1.919165762370738	0.5353661425933022	-0.02393284941917836	-0.7778171574276691	-0.02510098841009062	-1.01149216184158e-07	-6.207473062793717e-08	1.00566093377974e-06	-5.277679963321498e-07	-7.90682057903984e-08	-1.023289419643092e-07	7.308488127762455e-07
0.55	-0.1551882979986776	0.02854851946572271	0.8204075006517961	0.8928786880670709	-0.2440379212830515	-0.07990800877304642	-0.3517045662196618	0.863132046924966	0.8631320469249621	0.05731455677702486	0.1745279059440714	0.2988912066479698	0.04677998222843591	-0.348968478736138	-0.1084186357248584	-0.4309023060371335	1.657775846225229	-0.02300646215715261	0.3635544759892797	-0.5222841777267148	1.804482418881764	1.804482418881769	-0.1553579965916942	-1.992945790545348e-05	0.5779882853134113	0.1247319521731773	-0.1303624521316356	-0.01131215697825561	0.0152688704645567	-0.3710535941285418	0.05537683459678695	-0.007030336203011066	0.1787085025084106	-21.34845888937133	-25.09804162702404	-4.255082339719381	-2.508461317394834	5.018460862376852	-685.6520329250337	59.37239524497787	0.3343115095965286	0.3984289626526892	-0.1380337210244187	-1.707179946330103	0.06203441240472083	-0.4234332052072369	1.637528247105055	-2.069177598039981	-2.069177598038127	0.5564668637290398	0.007553372860840663	-0.8281627193618895	-0.05850825985073353	-9.322169437886349e-08	-5.5911123455628e-08	9.388430672860308e-07	-4.838526912479276e-07	-7.602062025773366e-08	-9.190321459362718e-08	6.815795172091404e-07
0.5600000000000001	-0.1586608546646157	0.02748431608487709	0.8160926151059522	0.9093689125251749	-0.24426461494532	-0.07629368865868108	-0.3568449638950698	0.8810709465719408	0.8810709465719434	0.05578842871914227	0.174527575044058	0.3046290315830318	0.0480245722562767	-0.3454990861401517	-0.1044149379192967	-0.4319719263876222	1.640045643252344	-0.02233057505122336	0.3592868873767828	-0.5057405051599007	1.783049056385006	1.783049056385023	-0.149869612843143	-4.485179993846762e-05	0.5695024444525403	0.1241672331080829	-0.136074219509169	-0.00960707102975623	0.01570227832274654	-0.3748736816153845	0.05220033426149313	-0.006464045578254933	0.1838900721828466	-20.1767561145445	-26.33732007117577	-4.358286623255873	-2.341054274890713	5.487808947969077	-690.1117230795306	59.31239107929646	0.3590781996410163	0.4021519367484012	-0.07564379995409104	-1.837664735804329	0.07820671214279452	-0.4263415970831612	1.671589617371858	-2.217155994832163	-2.217155994832111	0.5339383462045026	-0.02285332854910134	-0.8671048871155523	-0.04693955754350804	-8.55674670629023e-08	-5.122817711207789e-08	8.730253427429217e-07	-4.442345422365788e-07	-7.123738457786784e-08	-8.571529785081334e-08	6.343726601576522e-07
0.5700000000000001	-0.1620974206482119	0.02646031502209203	0.8117701309901884	0.9256752510305104	-0.24448445638248	-0.07272270432355595	-0.3618184520260237	0.8987882286791378	0.8987882286791385	0.05431703404510194	0.1745269364474311	0.3102798588486612	0.0492630346086624	-0.3417723215847766	-0.1003821005943728	-0.4324210524598091	1.621008980331627	-0.0216374531235645	0.3548875112835991	-0.4889171984602781	1.76017484294189	1.760174842941894	-0.1444121499257122	-8.012202396808621e-05	0.560596377412905	0.1235054247218759	-0.1415779005192377	-0.008055855844335704	0.01612260603814029	-0.3787741432121939	0.04920842543838329	-0.005961706852314364	0.1888699623523481	-19.01489087967135	-27.51618370986507	-4.482100280542809	-2.166462697883274	5.946385832769537	-694.4744430754369	59.24059433673821	0.3857381312903961	0.4043120305478391	-0.0139868080578749	-1.968635233908905	0.06489478640330425	-0.4502216469097381	1.693689581833133	-2.357416088374826	-2.357416088376872	0.5513314942807689	0.006487354998246096	-0.9123720056799661	-0.07869163629618869	-7.751138413053953e-08	-4.51180127786498e-08	8.076106826751487e-07	-3.982866767573099e-07	-6.788971348363444e-08	-7.690055807583398e-08	5.867701874169573e-07
